<svg xmlns="http://www.w3.org/2000/svg" xmlns:v="https://vecta.io/nano" viewBox="0 0 770.861 585.42"><path fill="#4c4cda" d="M313.328 267.874c-.011 0-.022 0-.033 0h-21.599l9.539 18.615h13.767c7.042-.003 12.753 5.703 12.756 12.745s-5.703 12.753-12.745 12.756h-.71l8.436 16.462c2.513-.792 4.913-1.905 7.14-3.312 9-5.684 14.455-15.588 14.449-26.233h0c0-17.126-13.874-31.014-30.999-31.032z"/><path fill="#2222db" d="M326.082 347.459l-9.092-17.743-9.084-17.727-13.068-25.5-9.539-18.615h0a7.96 7.96 0 0 0-7.086-4.332h-10.208c-2.988 0-5.724 1.672-7.087 4.331l-40.783 79.586a4.23 4.23 0 0 0 1.834 5.689c.596.306 1.257.465 1.927.465h14.595l29.328-57.231c1.497-2.921 5.079-4.076 8-2.579 1.109.568 2.011 1.47 2.579 2.579l7.998 15.607 9.079 17.717 12.251 23.907h14.595c2.334 0 4.226-1.892 4.226-4.226 0-.67-.159-1.331-.465-1.927z"/><path fill="#1e1ea2" d="M295.476 329.707l-9.079-17.717h-6.911l8.836 17.623z"/><path fill="#4c4cda" d="M279.485 311.989h-9.363l-.049-.037-21.14 41.661h20.888l12.194-24.029h4.173l2.134.028z"/><path d="M359.268 327.219c-.028-.258.101-.672.386-1.244l14.712-29.468c.143-.314.343-.515.601-.601a2.85 2.85 0 0 1 .901-.129h7.463c.372 0 .622.129.751.386a3.2 3.2 0 0 1 .279.858l6.305 29.468a1.49 1.49 0 0 1-.021.751c-.071.243-.265.364-.579.364h-7.377c-.401 0-.658-.285-.772-.857l-1.158-5.491c-.029-.257-.201-.386-.515-.386h-9.694c-.315 0-.558.172-.729.515l-2.917 5.834c-.085.144-.179.243-.279.3s-.308.086-.622.086h-6.263c-.286 0-.443-.129-.472-.386zm19.902-12.868c.457 0 .615-.271.472-.815l-1.845-8.45c-.029-.285-.115-.429-.257-.429s-.286.129-.429.387l-4.247 8.664c-.086.257-.107.429-.064.515s.178.129.408.129h5.962zm20.331-18.574h7.421c.429 0 .586.358.472 1.072l-3.346 23.764c-.086.457.057.686.429.686h13.426c.457 0 .657.329.601.987l-.644 4.675c-.028.286-.107.465-.235.536s-.351.107-.665.107h-21.447c-.715 0-1.029-.4-.943-1.201l4.204-29.854c.085-.515.328-.772.729-.772zm26.509 30.583c-1.916-1.115-3.389-2.681-4.418-4.696s-1.545-4.382-1.545-7.1c0-2.659.415-5.146 1.244-7.463s2.009-4.36 3.539-6.134a16.1 16.1 0 0 1 5.49-4.14c2.131-.987 4.482-1.479 7.056-1.479 2.517 0 4.668.472 6.456 1.415s3.159 2.152 4.117 3.625 1.48 3.01 1.565 4.611c0 .629-.128.958-.386.986l-6.777.943c-.114.029-.214-.043-.3-.214s-.172-.5-.258-.987a7.96 7.96 0 0 0-.729-2.166c-.343-.673-.844-1.215-1.502-1.63s-1.516-.622-2.573-.622c-1.487 0-2.738.45-3.753 1.352s-1.838 2.073-2.467 3.517-1.079 3.011-1.351 4.697a31.18 31.18 0 0 0-.408 4.976c0 2.345.422 3.961 1.266 4.847s2.009 1.33 3.496 1.33c.8 0 1.515-.114 2.145-.343s1.193-.521 1.694-.88a6.3 6.3 0 0 0 1.329-1.286 10.7 10.7 0 0 0 1.009-1.566l.257-.771c.2-.371.058-.558-.429-.558h-4.676c-.314 0-.457-.215-.429-.644l.472-4.032c.028-.343.186-.515.472-.515l12.697.086c.399 0 .649.05.75.15s.121.321.064.664l-2.059 14.713c-.058.372-.301.558-.729.558h-1.415c-.458 0-.787-.229-.987-.687l-1.029-2.831c-.086-.171-.207-.25-.364-.235s-.337.136-.536.364c-.515.572-1.173 1.151-1.974 1.737s-1.779 1.08-2.937 1.479-2.553.601-4.183.601c-2.687 0-4.99-.558-6.905-1.673zm32.684.065a10.96 10.96 0 0 1-4.547-4.611c-1.058-2.001-1.587-4.375-1.587-7.12l.043-1.63a15.69 15.69 0 0 1 .172-1.673c.485-3.316 1.501-6.169 3.045-8.558s3.518-4.231 5.92-5.533 5.09-1.951 8.063-1.951c2.745 0 5.104.551 7.078 1.651a11.17 11.17 0 0 1 4.546 4.697c1.058 2.03 1.588 4.446 1.588 7.249l-.043 1.565-.172 1.694c-.458 3.231-1.458 6.041-3.003 8.429s-3.503 4.218-5.876 5.49-5.062 1.908-8.064 1.908c-2.803 0-5.189-.536-7.163-1.608zm12.504-6.885c1.244-1.657 2.123-4.346 2.638-8.063l.236-2.295.064-1.951c0-2.088-.358-3.596-1.073-4.525s-1.858-1.395-3.431-1.395c-2.174 0-3.896.873-5.169 2.617s-2.181 4.532-2.724 8.363l-.236 2.21-.064 1.865c0 2.002.372 3.446 1.115 4.332s1.916 1.33 3.518 1.33c2.173 0 3.882-.829 5.126-2.488z" fill="#2222db"/><path d="M495.797 315.852c-.258 0-.437.058-.537.172s-.164.286-.192.515l-1.459 10.166c-.058.4-.164.65-.321.75s-.45.15-.879.15h-6.734c-.601 0-.83-.4-.687-1.201l4.246-29.939c.058-.285.122-.472.193-.558s.236-.129.493-.129h13.555c2.145 0 4.081.329 5.812.986s3.11 1.651 4.14 2.981 1.544 2.996 1.544 4.997c0 2.316-.572 4.304-1.716 5.962s-2.695 2.932-4.653 3.817-4.183 1.33-6.67 1.33h-6.134zm9.329-13.232c-.673-.472-1.581-.708-2.724-.708h-4.504c-.315 0-.536.079-.665.236s-.222.379-.279.665l-.857 6.219c-.029.286-.008.466.064.536s.207.107.407.107h4.676c.972 0 1.822-.229 2.552-.687a4.93 4.93 0 0 0 1.716-1.801 4.86 4.86 0 0 0 .622-2.402c0-.972-.337-1.694-1.008-2.166zm4.354 24.599c-.028-.258.101-.672.386-1.244l14.713-29.468c.143-.314.343-.515.601-.601s.558-.129.9-.129h7.464c.371 0 .622.129.75.386a3.2 3.2 0 0 1 .279.858l6.305 29.468a1.49 1.49 0 0 1-.021.751c-.072.243-.266.364-.579.364H532.9c-.401 0-.658-.285-.772-.857l-1.158-5.491c-.028-.257-.2-.386-.515-.386h-9.693c-.315 0-.558.172-.729.515l-2.917 5.834c-.086.144-.179.243-.278.3s-.308.086-.622.086h-6.263c-.285 0-.443-.129-.472-.386zm19.902-12.868c.457 0 .614-.271.472-.815l-1.844-8.45c-.029-.285-.115-.429-.258-.429s-.286.129-.429.387l-4.247 8.664c-.085.257-.106.429-.063.515s.178.129.407.129h5.962zm43.087-18.251c.07.214.035.422-.107.621l-12.525 16.558a3.15 3.15 0 0 0-.472.857c-.115.314-.229.887-.343 1.716l-1.544 10.853c-.058.4-.172.65-.344.75s-.486.15-.943.15h-6.605c-.372 0-.601-.071-.687-.215s-.114-.386-.086-.729l1.63-11.667c.058-.43.071-.751.043-.966s-.101-.464-.214-.75l-7.807-16.6c-.144-.314-.187-.543-.129-.687s.3-.215.729-.215h7.593c.371 0 .636.094.793.279s.293.436.408.75l4.375 10.295c.143.343.328.343.558 0l7.463-10.681c.2-.285.379-.465.536-.536s.422-.107.794-.107h6.263c.343 0 .55.107.622.322z" fill="#4c4cda"/></svg>